scaled_model_static_coords.mot
version=1
datacolumns 20
datarows 21
range 1.430000 1.630000
inDegrees=yes
endheader
time	pelvis_tilt	pelvis_list	pelvis_rotation	hip_flexion_r	hip_adduction_r	hip_rotation_r	knee_angle_r	ankle_angle_r	hip_flexion_l	hip_adduction_l	hip_rotation_l	knee_angle_l	ankle_angle_l	pelvis_tx	pelvis_ty	pelvis_tz	lumbar_bending	lumbar_rotation	lumbar_extension
1.430000	9.032726	-0.453688	178.783014	6.166679	-0.645005	-4.010689	2.417480	-1.080021	5.919367	0.919067	-3.105927	2.553588	0.500664	0.712263	0.970802	0.303941	3.692280	-1.785588	10.860343
1.440000	9.004376	-0.490020	178.756674	6.147789	-0.665229	-4.005403	2.414061	-1.132020	5.896725	0.941366	-3.207140	2.542236	0.504383	0.712329	0.970833	0.303896	3.742932	-1.808062	10.818269
1.450000	8.974493	-0.531517	178.738752	6.122953	-0.690854	-4.010830	2.419967	-1.190688	5.869017	0.969615	-3.280673	2.537280	0.523751	0.712378	0.970866	0.303833	3.769264	-1.832185	10.775271
1.460000	8.945020	-0.572564	178.731416	6.094452	-0.718095	-4.028496	2.432208	-1.247827	5.839450	0.998614	-3.317276	2.535677	0.557467	0.712406	0.970892	0.303757	3.771710	-1.856330	10.734355
1.470000	8.919714	-0.606349	178.733279	6.067597	-0.741515	-4.057658	2.446973	-1.299736	5.813571	1.022026	-3.319133	2.533025	0.601320	0.712409	0.970905	0.303680	3.756641	-1.878741	10.699831
1.480000	8.902861	-0.626956	178.741513	6.048456	-0.755897	-4.096819	2.460915	-1.346681	5.796911	1.034633	-3.297906	2.525940	0.649188	0.712388	0.970902	0.303616	3.732027	-1.897395	10.675743
1.490000	8.897036	-0.631382	178.753986	6.040609	-0.758426	-4.144887	2.472291	-1.390748	5.792249	1.034170	-3.269469	2.513410	0.695339	0.712344	0.970887	0.303575	3.703733	-1.910169	10.663441
1.500000	8.901506	-0.620702	178.769932	6.042938	-0.750059	-4.201207	2.481627	-1.433046	5.798030	1.022196	-3.247431	2.497084	0.736490	0.712281	0.970864	0.303557	3.674755	-1.915557	10.660535
1.510000	8.912385	-0.599877	178.789464	6.049877	-0.735259	-4.264588	2.491477	-1.472032	5.808900	1.003832	-3.237918	2.480745	0.771926	0.712205	0.970841	0.303558	3.646791	-1.913550	10.662209
1.520000	8.924118	-0.575977	178.813040	6.053961	-0.719903	-4.331905	2.504815	-1.504377	5.818260	0.985910	-3.237915	2.468394	0.801761	0.712128	0.970822	0.303566	3.621929	-1.905952	10.663650
1.530000	8.931335	-0.555441	178.841114	6.049141	-0.708385	-4.397161	2.522885	-1.527240	5.821256	0.974173	-3.238270	2.461844	0.824847	0.712062	0.970812	0.303571	3.603316	-1.895771	10.661905
1.540000	8.930507	-0.541763	178.873407	6.033081	-0.701748	-4.451795	2.544167	-1.539285	5.816346	0.971155	-3.229746	2.460105	0.837817	0.712021	0.970811	0.303569	3.595133	-1.885936	10.656502
1.550000	8.920850	-0.534734	178.908190	6.007442	-0.697945	-4.487002	2.565172	-1.539697	5.804939	0.975563	-3.208291	2.460879	0.835943	0.712012	0.970818	0.303557	3.601728	-1.877847	10.648892
1.560000	8.904044	-0.531294	178.942434	5.976243	-0.693619	-4.497861	2.582318	-1.526834	5.789887	0.983074	-3.176630	2.462314	0.815399	0.712038	0.970828	0.303537	3.625654	-1.870389	10.641100
1.570000	8.883025	-0.527426	178.972770	5.943540	-0.686062	-4.487017	2.593740	-1.498371	5.773911	0.988208	-3.142043	2.463727	0.775654	0.712090	0.970835	0.303513	3.665676	-1.860298	10.634320
1.580000	8.860625	-0.520221	178.996537	5.911860	-0.674424	-4.464650	2.600040	-1.453555	5.758506	0.986767	-3.112490	2.465615	0.720507	0.712159	0.970835	0.303484	3.716314	-1.844088	10.628128
1.590000	8.838629	-0.509064	179.012446	5.881984	-0.659641	-4.444027	2.603509	-1.395683	5.743485	0.977604	-3.093615	2.469430	0.657082	0.712232	0.970825	0.303451	3.769440	-1.820267	10.620345
1.600000	8.817318	-0.495324	179.020661	5.853451	-0.643211	-4.435866	2.606365	-1.331880	5.727101	0.962556	-3.087840	2.476857	0.593780	0.712299	0.970806	0.303410	3.817101	-1.790103	10.607171
1.610000	8.795476	-0.481113	179.022560	5.825057	-0.626025	-4.445273	2.609377	-1.270571	5.706651	0.944917	-3.095157	2.488704	0.538459	0.712354	0.970779	0.303360	3.853896	-1.756677	10.583718
1.620000	8.771047	-0.468252	179.020601	5.795195	-0.608408	-4.472214	2.611923	-1.219665	5.679465	0.928021	-3.114210	2.504366	0.496875	0.712395	0.970745	0.303302	3.877636	-1.723476	10.545501
1.630000	8.742346	-0.457814	179.018298	5.762417	-0.590989	-4.514077	2.613055	-1.185724	5.644040	0.914553	-3.142590	2.522276	0.471657	0.712422	0.970707	0.303239	3.888321	-1.693440	10.490817
